%FSLAX32Y32*%
%MOMM*%
%LNCOPPER2*%
G71*
G01*
%ADD10C, 0.11*%
%ADD11C, 2.50*%
%ADD12C, 1.20*%
%ADD13C, 1.16*%
%ADD14C, 2.80*%
%ADD15C, 1.50*%
%ADD16C, 2.00*%
%ADD17C, 0.30*%
%ADD18C, 1.40*%
%ADD19C, 0.70*%
%ADD20C, 0.15*%
%ADD21C, 2.50*%
%ADD22C, 0.50*%
%LPD*%
G54D10*
X4698Y6313D02*
X4644Y6313D01*
G54D10*
X4671Y6335D02*
X4671Y6291D01*
G54D10*
X4567Y6363D02*
X4621Y6363D01*
X4621Y6324D01*
X4614Y6324D01*
X4601Y6330D01*
X4587Y6330D01*
X4574Y6324D01*
X4567Y6313D01*
X4567Y6291D01*
X4574Y6280D01*
X4587Y6274D01*
X4601Y6274D01*
X4614Y6280D01*
X4621Y6291D01*
G54D10*
X4544Y6363D02*
X4510Y6274D01*
X4477Y6363D01*
X4862Y6314D02*
G54D11*
D03*
G54D12*
G75*
G01X6988Y1835D02*
G03X4078Y6978I-173J3297D01*
G01*
G54D12*
G75*
G01X7181Y1654D02*
G03X6389Y1661I-366J3478D01*
G01*
G54D12*
G75*
G01X9980Y7034D02*
G03X6557Y1449I-3165J-1902D01*
G01*
G54D12*
G75*
G01X7214Y1259D02*
G03X6332Y1267I-407J3873D01*
G01*
G54D12*
G75*
G01X3072Y6796D02*
G03X6529Y1043I3743J-1666D01*
G01*
G54D12*
G75*
G01X7008Y1451D02*
G03X10156Y6690I-193J3681D01*
G01*
G54D12*
G75*
G01X3822Y6527D02*
G03X6585Y1838I2993J-1395D01*
G01*
G54D13*
X9942Y6766D02*
X10228Y6925D01*
G54D12*
G75*
G01X7029Y1055D02*
G03X3239Y7121I-214J4084D01*
G01*
X9292Y6481D02*
G54D14*
D03*
X4212Y6465D02*
G54D14*
D03*
X6752Y2226D02*
G54D14*
D03*
G54D15*
G75*
G01X2095Y5142D02*
G03X2095Y5142I4731J0D01*
G01*
G54D12*
X7000Y1824D02*
X7048Y649D01*
G54D12*
G75*
G01X7260Y848D02*
G03X6286Y856I-450J4278D01*
G01*
G54D12*
X3286Y6872D02*
X2984Y7047D01*
G54D12*
G75*
G01X7046Y624D02*
G03X10896Y7031I-236J4502D01*
G01*
G54D12*
G75*
G01X10714Y7380D02*
G03X6496Y629I-3904J-2254D01*
G01*
G54D12*
X6508Y649D02*
X6588Y1824D01*
G54D12*
X4857Y6316D02*
X4857Y6348D01*
X4429Y6777D01*
X3976Y6713D01*
X3778Y6825D01*
G54D13*
X10657Y7147D02*
X10943Y7306D01*
X6574Y7129D02*
G54D16*
D03*
X5955Y7129D02*
G54D16*
D03*
X8301Y6620D02*
G54D16*
D03*
X7539Y6620D02*
G54D16*
D03*
X7555Y6033D02*
G54D16*
D03*
X7555Y5271D02*
G54D16*
D03*
G54D17*
G75*
G01X6507Y5126D02*
G03X6507Y5126I318J0D01*
G01*
G36*
X6477Y6654D02*
X6477Y6514D01*
X6337Y6514D01*
X6337Y6654D01*
X6477Y6654D01*
G37*
X6407Y6330D02*
G54D18*
D03*
X6407Y6076D02*
G54D18*
D03*
X6407Y5822D02*
G54D18*
D03*
X7169Y5822D02*
G54D18*
D03*
X7169Y6076D02*
G54D18*
D03*
X7169Y6330D02*
G54D18*
D03*
X7169Y6584D02*
G54D18*
D03*
X8498Y4057D02*
G54D16*
D03*
X8060Y3619D02*
G54D16*
D03*
X7604Y7139D02*
G54D16*
D03*
X6985Y7139D02*
G54D16*
D03*
X8910Y4930D02*
G54D16*
D03*
X8742Y4334D02*
G54D16*
D03*
G54D19*
X7160Y6333D02*
X8001Y6333D01*
X8303Y6634D01*
G54D19*
X7541Y6619D02*
X7541Y6762D01*
X7144Y7158D01*
X7001Y7158D01*
X6588Y7158D01*
X6556Y7127D01*
G54D19*
X5937Y7127D02*
X6175Y7127D01*
X6414Y7365D01*
X7382Y7365D01*
X7604Y7142D01*
X7604Y7127D01*
X7810Y6920D01*
X8382Y6920D01*
X8588Y6714D01*
X8588Y5936D01*
X8239Y5587D01*
X6620Y5587D01*
X6398Y5809D01*
X8000Y6033D02*
G54D16*
D03*
X8000Y5271D02*
G54D16*
D03*
G54D19*
X7160Y6063D02*
X7556Y6063D01*
X7604Y6015D01*
G54D19*
X7176Y5793D02*
X7763Y5793D01*
X8001Y6031D01*
G54D19*
X8001Y5269D02*
X8001Y4825D01*
X8620Y4206D01*
X8477Y4047D01*
X5276Y4231D02*
G54D16*
D03*
X4838Y4669D02*
G54D16*
D03*
X5846Y3635D02*
G54D16*
D03*
X5408Y4073D02*
G54D16*
D03*
G54D19*
X4842Y4650D02*
X5652Y4650D01*
X6604Y5603D01*
X6097Y5127D02*
G54D16*
D03*
X6097Y5889D02*
G54D16*
D03*
X5748Y5111D02*
G54D16*
D03*
X5748Y5873D02*
G54D16*
D03*
G36*
X6096Y5110D02*
X5731Y5110D01*
X5731Y5095D01*
X5286Y4650D01*
X5636Y4650D01*
X6112Y5126D01*
X6096Y5110D01*
G37*
G54D20*
X6096Y5110D02*
X5731Y5110D01*
X5731Y5095D01*
X5286Y4650D01*
X5636Y4650D01*
X6112Y5126D01*
X6096Y5110D01*
G36*
X5731Y5158D02*
X6128Y5158D01*
X6080Y5158D01*
X6001Y5079D01*
X5715Y5079D01*
X5794Y5158D01*
X5731Y5158D01*
G37*
G54D20*
X5731Y5158D02*
X6128Y5158D01*
X6080Y5158D01*
X6001Y5079D01*
X5715Y5079D01*
X5794Y5158D01*
X5731Y5158D01*
G54D19*
X6398Y6317D02*
X6191Y6317D01*
X5731Y5857D01*
X5731Y5888D01*
X4334Y7270D01*
X6223Y6888D02*
G54D16*
D03*
G54D19*
X6779Y6888D02*
X6969Y6888D01*
X7160Y6698D01*
X7160Y6603D01*
G36*
X7604Y5587D02*
X7763Y5428D01*
X7922Y5587D01*
X7620Y5587D01*
X7604Y5587D01*
G37*
G54D19*
X7604Y5587D02*
X7763Y5428D01*
X7922Y5587D01*
X7620Y5587D01*
X7604Y5587D01*
G36*
X6414Y5825D02*
X6414Y5412D01*
X6604Y5603D01*
X6398Y5809D01*
X6398Y5396D01*
X6414Y5825D01*
G37*
G54D19*
X6414Y5825D02*
X6414Y5412D01*
X6604Y5603D01*
X6398Y5809D01*
X6398Y5396D01*
X6414Y5825D01*
X5589Y6556D02*
G54D16*
D03*
X5589Y7318D02*
G54D16*
D03*
G54D19*
X6414Y6079D02*
X6286Y6079D01*
X6096Y5888D01*
X6096Y5872D01*
X5842Y5618D01*
X5588Y5618D01*
X5159Y6047D01*
X3635Y6047D01*
X3620Y6063D01*
X5667Y6317D02*
G54D16*
D03*
X5112Y5698D02*
G54D16*
D03*
G54D19*
X5112Y5698D02*
X5112Y5380D01*
X5382Y5110D01*
X5731Y5110D01*
G54D19*
X7556Y5269D02*
X7556Y4222D01*
X7176Y3840D01*
X5652Y3840D01*
X5255Y4237D01*
X6366Y4555D02*
G54D21*
D03*
G54D19*
X7763Y5460D02*
X7763Y3920D01*
X8049Y3634D01*
G54D19*
X8731Y4333D02*
X8731Y4317D01*
X8572Y4158D01*
X8731Y4317D01*
X8572Y4158D01*
G36*
X8572Y4158D02*
X8572Y4253D01*
X8668Y4253D01*
X8572Y4158D01*
G37*
G54D19*
X8572Y4158D02*
X8572Y4253D01*
X8668Y4253D01*
X8572Y4158D01*
G54D19*
X5858Y3634D02*
X7477Y3634D01*
X7763Y3920D01*
G36*
X7398Y3634D02*
X8080Y3634D01*
X8049Y3634D01*
X7763Y3920D01*
X7493Y3650D01*
X7398Y3634D01*
G37*
G54D19*
X7398Y3634D02*
X8080Y3634D01*
X8049Y3634D01*
X7763Y3920D01*
X7493Y3650D01*
X7398Y3634D01*
G54D19*
X6366Y4555D02*
X6239Y4555D01*
X5842Y4952D01*
X7128Y3015D02*
G54D21*
D03*
G54D19*
X7128Y3015D02*
X7366Y3015D01*
X7509Y3158D01*
X7525Y3158D02*
G54D16*
D03*
X4937Y6666D02*
G54D16*
D03*
X4620Y6047D02*
G54D16*
D03*
X5556Y4650D02*
G54D16*
D03*
X6826Y3634D02*
G54D16*
D03*
G54D10*
X6596Y4565D02*
X6569Y4565D01*
X6569Y4537D01*
X6576Y4526D01*
X6589Y4520D01*
X6603Y4520D01*
X6616Y4526D01*
X6623Y4537D01*
X6623Y4593D01*
X6616Y4604D01*
X6603Y4609D01*
X6589Y4609D01*
X6576Y4604D01*
X6569Y4593D01*
G54D10*
X6908Y3034D02*
X6855Y3034D01*
G54D10*
X6882Y3056D02*
X6882Y3012D01*
G54D10*
X4970Y6886D02*
X4970Y6975D01*
X4936Y6919D01*
X4903Y6975D01*
X4903Y6886D01*
G54D10*
X4616Y5848D02*
X4616Y5759D01*
X4570Y5759D01*
G54D19*
X8890Y4920D02*
X8874Y4920D01*
X8207Y5587D01*
G54D19*
X5667Y6317D02*
X5588Y6555D01*
G54D19*
X5588Y6555D02*
X6382Y6555D01*
X6414Y6587D01*
G54D19*
X5588Y7317D02*
X5588Y7031D01*
X5731Y6888D01*
X6779Y6888D01*
G36*
X2417Y867D02*
X2557Y867D01*
X2557Y727D01*
X2417Y727D01*
X2417Y867D01*
G37*
X2741Y797D02*
G54D18*
D03*
X2995Y797D02*
G54D18*
D03*
X3249Y797D02*
G54D18*
D03*
X3249Y1559D02*
G54D18*
D03*
X2995Y1559D02*
G54D18*
D03*
X2741Y1559D02*
G54D18*
D03*
X2487Y1559D02*
G54D18*
D03*
G36*
X3472Y1414D02*
X3472Y1334D01*
X3212Y1334D01*
X3212Y1414D01*
X3472Y1414D01*
G37*
G36*
X3472Y1287D02*
X3472Y1207D01*
X3212Y1207D01*
X3212Y1287D01*
X3472Y1287D01*
G37*
G36*
X3472Y1160D02*
X3472Y1080D01*
X3212Y1080D01*
X3212Y1160D01*
X3472Y1160D01*
G37*
G36*
X3472Y1033D02*
X3472Y953D01*
X3212Y953D01*
X3212Y1033D01*
X3472Y1033D01*
G37*
G36*
X2552Y1033D02*
X2552Y953D01*
X2292Y953D01*
X2292Y1033D01*
X2552Y1033D01*
G37*
G36*
X2552Y1160D02*
X2552Y1080D01*
X2292Y1080D01*
X2292Y1160D01*
X2552Y1160D01*
G37*
G36*
X2552Y1287D02*
X2552Y1207D01*
X2292Y1207D01*
X2292Y1287D01*
X2552Y1287D01*
G37*
G36*
X2552Y1414D02*
X2552Y1334D01*
X2292Y1334D01*
X2292Y1414D01*
X2552Y1414D01*
G37*
G54D19*
X2476Y1372D02*
X2476Y1547D01*
X2492Y1562D01*
G54D22*
X2524Y1261D02*
X2588Y1261D01*
X2730Y1404D01*
X2730Y1562D01*
G54D22*
X2540Y1118D02*
X2588Y1118D01*
X3000Y1531D01*
G54D22*
X2492Y991D02*
X2604Y991D01*
X2858Y1245D01*
X3040Y1420D01*
X3112Y1459D01*
X3238Y1547D01*
G54D22*
X3254Y800D02*
X3254Y991D01*
G54D22*
X3000Y800D02*
X3000Y943D01*
X3175Y1118D01*
X3334Y1118D01*
G54D22*
X2746Y800D02*
X2746Y848D01*
X3143Y1245D01*
X3302Y1245D01*
G54D22*
X2476Y800D02*
X2556Y800D01*
X3080Y1324D01*
X3127Y1348D01*
X3175Y1372D01*
X3270Y1372D01*
G36*
X5247Y5253D02*
X5247Y4650D01*
X5255Y4642D01*
X5667Y4642D01*
X5913Y4642D01*
X5977Y4642D01*
X6096Y4523D01*
X6350Y4523D01*
X6382Y4555D01*
X6382Y5372D01*
X6374Y5380D01*
X6374Y5372D01*
X6120Y5118D01*
X5390Y5118D01*
X5366Y5118D01*
X5263Y5222D01*
X5247Y5253D01*
G37*
G54D22*
X5247Y5253D02*
X5247Y4650D01*
X5255Y4642D01*
X5667Y4642D01*
X5913Y4642D01*
X5977Y4642D01*
X6096Y4523D01*
X6350Y4523D01*
X6382Y4555D01*
X6382Y5372D01*
X6374Y5380D01*
X6374Y5372D01*
X6120Y5118D01*
X5390Y5118D01*
X5366Y5118D01*
X5263Y5222D01*
X5247Y5253D01*
G36*
X5144Y4650D02*
X5270Y4777D01*
X5270Y4666D01*
X5255Y4650D01*
X5151Y4650D01*
X5144Y4650D01*
G37*
G54D22*
X5144Y4650D02*
X5270Y4777D01*
X5270Y4666D01*
X5255Y4650D01*
X5151Y4650D01*
X5144Y4650D01*
M02*
